<?xml version="1.0" standalone="no"?>
<!DOCTYPE svg PUBLIC "-//W3C//DTD SVG 20010904//EN"
 "http://www.w3.org/TR/2001/REC-SVG-20010904/DTD/svg10.dtd">
<svg version="1.0" xmlns="http://www.w3.org/2000/svg"
 width="40.000000pt" height="40.000000pt" viewBox="0 0 40.000000 40.000000"
 preserveAspectRatio="xMidYMid meet">

<g transform="translate(0.000000,40.000000) scale(0.100000,-0.100000)"
fill="#000000" stroke="none">
<path d="M140 310 c0 -5 -8 -10 -17 -12 -15 -3 -14 -5 5 -10 14 -4 20 -2 15 5
-4 7 0 8 13 2 10 -4 29 -10 42 -12 14 -4 22 -13 23 -27 0 -21 0 -21 11 1 6 13
19 25 29 28 15 5 16 9 7 19 -10 10 -18 10 -40 -3 -26 -15 -30 -15 -58 1 -16 9
-30 13 -30 8z m110 -20 c-8 -5 -19 -10 -25 -10 -5 0 -3 5 5 10 8 5 20 10 25
10 6 0 3 -5 -5 -10z"/>
<path d="M62 268 c-7 -7 -11 -23 -11 -37 l2 -26 4 25 c3 14 10 31 15 38 13 15
6 16 -10 0z"/>
<path d="M167 259 c4 -13 8 -18 11 -10 2 7 -1 18 -6 23 -8 8 -9 4 -5 -13z"/>
<path d="M325 270 c-3 -5 -1 -10 4 -10 6 0 11 5 11 10 0 6 -2 10 -4 10 -3 0
-8 -4 -11 -10z"/>
<path d="M289 253 c-11 -3 -15 -12 -11 -30 3 -15 -1 -29 -9 -34 -11 -7 -9 -9
7 -9 17 0 20 5 16 25 -2 14 1 32 8 40 7 8 11 14 9 14 -2 -1 -11 -3 -20 -6z"/>
<path d="M108 209 c3 -25 0 -39 -8 -39 -6 0 -8 4 -5 10 4 6 -1 7 -11 3 -13 -5
-15 -3 -9 8 8 12 6 12 -8 0 -10 -8 -16 -26 -15 -45 l1 -31 4 32 c4 30 6 31 29
21 18 -8 24 -19 24 -42 0 -23 6 -34 24 -42 22 -10 24 -10 13 7 -6 10 -15 15
-19 13 -8 -5 -11 32 -8 97 1 21 -2 39 -7 42 -5 3 -7 -12 -5 -34z"/>
<path d="M322 201 c-11 -7 -11 -9 2 -14 10 -4 16 -1 16 8 0 17 -1 17 -18 6z"/>
<path d="M138 163 c6 -2 10 -9 7 -14 -4 -5 2 -6 11 -2 12 4 15 3 10 -5 -5 -8
-2 -10 9 -6 10 4 15 2 13 -7 -2 -8 4 -14 12 -14 8 0 14 6 12 14 -2 9 3 11 13
7 11 -4 14 -2 9 6 -5 8 -2 9 10 5 10 -4 15 -3 11 3 -3 6 1 10 9 10 11 0 16 -9
16 -30 0 -16 3 -30 8 -30 4 0 7 15 7 33 0 39 -20 45 -66 21 -26 -13 -32 -13
-59 1 -16 8 -33 15 -37 14 -4 0 -2 -3 5 -6z"/>
</g>
</svg>
